  http://www.hotimg.com/direct/X6WNVQU.jpg

Screens:
  
http://www.hotimg.com/direct/QSWutw8.jpg
  
http://www.hotimg.com/direct/AbsJw6M.jpg
  
http://www.hotimg.com/direct/eY49gdx.jpg
  
http://www.hotimg.com/direct/Nyczuxp.jpg

Alternative:
  
http://www.postimg.com/image/52000/photo-51304.jpg
  
http://www.postimg.com/image/52000/photo-51305.jpg
  
http://www.postimg.com/image/52000/photo-51306.jpg
  
http://www.postimg.com/image/52000/photo-51307.jpg

ScreenCaps:
  
http://www.postimg.com/image/52000/photo-51310.jpg

Rise of the Planet of the Apes (2011) DVDRip XviD-MAX
Format                           : AVI
Format/Info                      : Audio Video Interleave
Format profile                   : OpenDML
File size                        : 1.55 GiB
Duration                         : 1h 44mn
Overall bit rate                 : 2 121 Kbps
Writing application              : VirtualDubMod 1.5.10.2 (build 2542/release)
Writing library                  : VirtualDubMod build 2542/release
Original source form             : MAX TORRENTZ
Copyright                        : SIGISMUNT

Video
ID                               : 0
Format                           : MPEG-4 Visual
Format profile                   : AdvancedSimple@L5
Format settings, BVOP            : Yes
Format settings, QPel            : No
Format settings, GMC             : No warppoints
Format settings, Matrix          : Custom
Codec ID                         : XVID
Codec ID/Hint                    : XviD
Duration                         : 1h 44mn
Bit rate                         : 1 732 Kbps
Width                            : 720 pixels
Height                           : 304 pixels
Display aspect ratio             : 2.35:1
Frame rate                       : 23.976 fps
Resolution                       : 24 bits
Colorimetry                      : 4:2:0
Scan type                        : Progressive
Bits/(Pixel*Frame)               : 0.330
Stream size                      : 1.27 GiB (82%)
Writing library                  : XviD 58

Audio
ID                               : 1
Format                           : AC-3
Format/Info                      : Audio Coding 3
Codec ID                         : 2000
Duration                         : 1h 44mn
Bit rate mode                    : Constant
Bit rate                         : 384 Kbps
Channel(s)                       : 6 channels
Channel positions                : Front: L C R, Surround: L R, LFE
Sampling rate                    : 48.0 KHz
Stream size                      : 288 MiB (18%)
Alignment                        : Aligned on interleaves
Interleave, duration             : 64 ms (1.53 video frames)
Interleave, preload duration     : 192 ms

Source: DVD (perfect a/v/sync quality,sample included)
This torrent is not seedbox supported,please seed it to the MAX
  
http://www.imdb.com/title/tt1318514/

Note:If you have something to offer as early releases,seedboxes,links,accounts,etc
please contact us on piratepedia[@]msn/gmail.com or our website torentz 3xforum ro

Rise of the Planet of the Apes (2011) DVDRip XviD-MAX Torrent Free Download
 